<svg width="200" height="150" viewBox="0 0 200 150" fill="none" xmlns="http://www.w3.org/2000/svg">
<path opacity="0.12" d="M133.908 104.014V113.058C133.908 113.497 133.546 113.833 133.133 113.833H108.145C107.706 113.833 107.37 113.497 107.37 113.058V104.014C107.37 103.962 107.37 103.884 107.396 103.833C107.474 103.497 107.784 103.238 108.145 103.238H133.133C133.546 103.238 133.908 103.574 133.908 104.014Z" fill="white"/>
<path d="M43.3637 90.6553C56.2792 90.6553 66.7489 80.1853 66.7489 67.27C66.7489 54.3548 56.2792 43.8848 43.3637 43.8848C30.4484 43.8848 19.9785 54.3548 19.9785 67.27C19.9785 80.1853 30.4484 90.6553 43.3637 90.6553Z" fill="url(#paint0_linear)"/>
<path d="M101.452 92.5155C95.4575 99.9317 86.1807 111.405 70.8835 115.797C52.4597 121.069 28.9192 115.048 27.1105 105.849C24.9917 95.203 53.9842 90.8102 59.3847 69.2337C65.3797 45.2542 35.3795 27.2437 42.2787 15.3573C49.4362 3.03159 92.5632 3.70344 109.333 28.2515C120.393 44.479 115.69 64.841 114.941 67.916C112.124 79.3112 106.155 86.6757 101.452 92.5155Z" fill="url(#paint1_linear)"/>
<path d="M194.709 43.9613C200.73 62.6953 190.626 86.959 171.324 96.4425C149.205 107.295 120.341 96.1323 118.92 86.0805C117.551 76.2873 143.055 73.7033 155.923 47.4498C163.132 32.721 160.703 22.1265 167.396 19.8526C175.691 17.036 190.135 29.6975 194.709 43.9613Z" fill="url(#paint2_linear)"/>
<path opacity="0.12" d="M165.846 58.2779H140.859C140.42 58.2779 140.084 57.9421 140.084 57.5026V40.7066C140.084 40.2674 140.42 39.9316 140.859 39.9316H165.846C166.286 39.9316 166.622 40.2674 166.622 40.7066V57.5026C166.622 57.9421 166.26 58.2779 165.846 58.2779Z" fill="white"/>
<path opacity="0.12" d="M196.724 58.2779H171.737C171.298 58.2779 170.962 57.9421 170.962 57.5026V40.7066C170.962 40.2674 171.298 39.9316 171.737 39.9316H196.724C197.164 39.9316 197.5 40.2674 197.5 40.7066V57.5026C197.5 57.9421 197.138 58.2779 196.724 58.2779Z" fill="white"/>
<path d="M37.9378 115.771C33.1058 115.771 28.196 114.944 23.3899 113.239C14.9143 110.189 7.73077 104.711 2.58862 97.3728C2.43358 97.1401 2.48526 96.8043 2.71782 96.6493C2.95037 96.4941 3.2863 96.5458 3.44135 96.7783C8.4543 103.936 15.4828 109.311 23.7516 112.257C45.638 120.112 69.8242 108.691 77.6797 86.8041C81.4782 76.2098 80.9355 64.7626 76.1292 54.5816C71.323 44.4008 62.8475 36.7003 52.2272 32.9018C45.0955 30.3438 37.3953 29.7493 29.979 31.1966C29.6948 31.2481 29.4365 31.0673 29.3848 30.7831C29.333 30.4988 29.514 30.2403 29.7983 30.1886C37.3953 28.7158 45.2763 29.3101 52.589 31.9458C63.4418 35.8476 72.15 43.7288 77.0595 54.1683C81.995 64.6076 82.5635 76.3391 78.6618 87.1918C72.305 104.763 55.664 115.771 37.9378 115.771Z" fill="url(#paint3_linear)"/>
<path d="M19.7463 34.4787C19.5396 34.4787 19.3587 34.3755 19.2812 34.1945C19.152 33.9362 19.2812 33.626 19.5396 33.497C22.7954 31.9465 26.2321 30.8355 29.7723 30.1377C30.0566 30.086 30.3148 30.267 30.3666 30.5512C30.4183 30.8355 30.2373 31.0937 29.9531 31.1455C26.5163 31.8172 23.1572 32.9285 19.953 34.4272C19.9013 34.4787 19.8238 34.4787 19.7463 34.4787Z" fill="url(#paint4_linear)"/>
<path d="M37.8859 122.903C37.1881 122.903 36.5164 122.877 35.8186 122.851C35.5344 122.851 35.3019 122.593 35.3276 122.309C35.3276 122.024 35.5861 121.818 35.8704 121.818C36.5421 121.843 37.2141 121.869 37.8859 121.869C47.4984 121.869 57.1366 118.975 65.1989 113.652C74.1394 107.761 80.7544 99.3108 84.3721 89.2333C88.8166 76.8558 88.1446 63.4708 82.5374 51.5585C76.9301 39.6463 67.0076 30.628 54.6301 26.1835C49.7206 24.4264 44.6044 23.4445 39.4621 23.2895C39.1779 23.2895 38.9454 23.0311 38.9711 22.7468C38.9711 22.4626 39.2036 22.2559 39.4879 22.2559C39.4879 22.2559 39.4879 22.2559 39.5139 22.2559C44.7594 22.4109 49.9791 23.4187 54.9919 25.2015C67.6276 29.7235 77.7571 38.9228 83.4936 51.0933C89.2299 63.264 89.9019 76.9333 85.3799 89.5433C81.6846 99.8275 74.9146 108.458 65.7931 114.479C57.5244 119.957 47.7051 122.903 37.8859 122.903ZM37.9376 108.639C33.9066 108.639 29.7979 107.967 25.7926 106.52C20.1596 104.505 15.0691 101.068 11.0898 96.6235C10.9089 96.4168 10.9089 96.0808 11.1415 95.9C11.3482 95.719 11.6841 95.719 11.865 95.9515C15.7151 100.267 20.6506 103.6 26.1544 105.564C44.3459 112.076 64.4494 102.593 70.9611 84.401C74.1136 75.6155 73.6484 66.1063 69.6434 57.6308C65.6381 49.1553 58.6096 42.747 49.7981 39.5945C40.9866 36.442 31.4776 36.9073 23.002 40.8865C20.909 41.8685 18.8935 43.083 17.0588 44.4265C16.8263 44.6075 16.5162 44.5558 16.3353 44.3233C16.1544 44.0908 16.2061 43.7805 16.4387 43.5998C18.3508 42.2043 20.3922 40.964 22.5627 39.9563C31.2709 35.8478 41.0641 35.3825 50.1341 38.6125C59.1781 41.8685 66.4391 48.4578 70.5734 57.1658C74.7079 65.8738 75.1731 75.6673 71.9171 84.737C66.6459 99.4658 52.7439 108.639 37.9376 108.639Z" fill="url(#paint5_linear)"/>
<path d="M12.4084 18.9239C12.2017 18.9239 12.0208 18.8205 11.9433 18.6397C11.8141 18.3813 11.9433 18.0712 12.2017 17.942C26.8013 11.0427 43.1838 10.2675 58.3778 15.7197C58.6361 15.8231 58.7914 16.1073 58.6879 16.3916C58.5846 16.65 58.3004 16.805 58.0161 16.7017C43.1063 11.3269 26.9821 12.1021 12.6409 18.8722C12.5634 18.8981 12.4859 18.9239 12.4084 18.9239Z" fill="url(#paint6_linear)"/>
<path d="M37.9637 97.3222C35.1987 97.3222 32.3822 96.8569 29.6432 95.8749C26.4907 94.7382 23.6741 93.0327 21.2193 90.7844C21.0126 90.6037 20.9868 90.2677 21.1935 90.0609C21.3744 89.8542 21.7103 89.8284 21.917 90.0352C24.2426 92.1799 26.9557 93.8337 29.9792 94.9189C42.279 99.3377 55.8967 92.9034 60.3152 80.6037C64.734 68.3037 58.2997 54.6859 46 50.2674C42.3047 48.9494 38.2997 48.5362 34.4237 49.1304C34.1395 49.1822 33.881 48.9754 33.8292 48.6912C33.7775 48.4069 33.9842 48.1484 34.2685 48.0969C38.2997 47.4767 42.4857 47.8902 46.336 49.2854C59.1782 53.8849 65.8967 68.0969 61.2715 80.9394C57.6537 91.0172 48.1187 97.3222 37.9637 97.3222Z" fill="url(#paint7_linear)"/>
<path d="M37.9896 90.0355C35.9999 90.0355 34.0101 89.6995 32.0981 89.0017C28.0929 87.5547 24.7336 84.7125 22.6922 80.9657C22.563 80.7072 22.6406 80.3972 22.899 80.268C23.1574 80.1387 23.4674 80.2162 23.5966 80.4747C25.5346 83.989 28.6614 86.6762 32.4339 88.02C36.5684 89.4927 41.0129 89.286 44.9921 87.4257C48.9456 85.5652 51.9431 82.2577 53.4419 78.1232C54.9149 73.9887 54.7081 69.5442 52.8476 65.565C50.9871 61.6115 47.6796 58.614 43.5451 57.1152C38.8681 55.4357 33.7776 55.9525 29.5141 58.5107C29.2814 58.6657 28.9456 58.5882 28.8164 58.3297C28.6614 58.0972 28.7389 57.7612 28.9971 57.632C33.5191 54.919 38.9456 54.3762 43.9069 56.1332C52.9509 59.3892 57.6796 69.3892 54.4496 78.4332C52.8734 82.826 49.6951 86.3402 45.4831 88.33C43.0541 89.467 40.5219 90.0355 37.9896 90.0355Z" fill="url(#paint8_linear)"/>
<path d="M37.9633 81.6621C36.9556 81.6621 35.9221 81.4811 34.9143 81.1193C32.6403 80.2926 30.8056 78.6388 29.7721 76.4423C28.7383 74.2461 28.6093 71.7911 29.4361 69.4913C30.2631 67.2176 31.9168 65.3828 34.1131 64.3493C36.3096 63.3156 38.7643 63.1863 41.0641 64.0133C43.3381 64.8403 45.1728 66.4941 46.2063 68.6903C47.2398 70.8868 47.3691 73.3416 46.5423 75.6413C45.1986 79.3366 41.6843 81.6621 37.9633 81.6621ZM37.9633 64.5043C36.8006 64.5043 35.6118 64.7626 34.5266 65.2796C32.5886 66.2098 31.1158 67.8118 30.3923 69.8531C28.8936 74.0393 31.0641 78.6646 35.2501 80.1633C39.4363 81.6621 44.0616 79.4916 45.5603 75.3053C46.2838 73.2898 46.1806 71.0936 45.2503 69.1556C44.3201 67.2176 42.7178 65.7446 40.6766 65.0211C39.7981 64.6593 38.8936 64.5043 37.9633 64.5043Z" fill="url(#paint9_linear)"/>
<path d="M53.3897 141.275C73.8032 146.314 89.7467 132.153 98.1705 125.745C104.217 121.171 129.308 124.246 128.584 123.213C127.137 121.12 85.5865 100.112 85.5865 100.112L46.6712 99.4141C46.6972 99.4401 38.1182 119.466 53.3897 141.275Z" fill="url(#paint10_linear)"/>
<path d="M191.583 83.7305H180.445V87.5032H191.583V83.7305Z" fill="url(#paint11_linear)"/>
<path d="M195.768 24.2716V30.7575C195.768 31.0675 195.51 31.326 195.2 31.326H106.749C106.439 31.326 106.181 31.0675 106.181 30.7575V24.2716C106.181 23.9615 106.439 23.7031 106.749 23.7031H195.2C195.51 23.7031 195.768 23.9615 195.768 24.2716Z" fill="url(#paint12_linear)"/>
<path d="M65.3799 140.474C44.9664 145.513 41.8657 132.153 33.4417 125.745C27.3952 121.171 2.30451 124.246 3.02803 123.213C4.47508 121.12 46.0259 100.112 46.0259 100.112L84.9409 99.4141C84.9409 99.4401 114.734 128.277 65.3799 140.474Z" fill="url(#paint13_linear)"/>
<path d="M38.1968 50.7075C38.1968 50.7075 30.8066 38.485 31.6076 33.0587C32.4346 27.6065 39.9538 25.3067 39.9538 25.3067C39.9538 25.3067 40.9876 22.5417 44.9668 20.4745C56.2073 14.6864 96.3886 15.5391 95.4583 26.6245C95.4583 26.6245 100.032 29.105 99.0501 33.2137C98.0681 37.348 92.0473 53.4722 92.0473 53.4722L57.3443 30.242L38.1968 50.7075Z" fill="url(#paint14_linear)"/>
<path d="M98.6612 61.5581C98.6612 70.1889 94.2684 73.7029 92.8472 73.7029C91.4262 73.7029 91.6587 68.6126 91.6587 62.3334C91.6587 56.0544 93.5707 49.8526 96.0514 49.8009C98.4804 49.7751 98.6612 55.2791 98.6612 61.5581Z" fill="#1F253C"/>
<path d="M31.9688 61.5596C31.9688 68.1746 36.594 74.3503 38.1187 74.3503C39.6432 74.3503 39.3847 68.9758 39.3847 62.3606C39.3847 55.7456 37.3692 49.2081 34.7595 49.1563C32.1495 49.1306 31.9688 54.9446 31.9688 61.5596Z" fill="#1F253C"/>
<path d="M85.1215 111.199C85.044 115.049 81.9172 131.147 63.5192 129.339C52.8215 128.279 47.2917 123.938 44.5525 119.442C43.8032 118.227 43.2865 117.013 42.8987 115.85C41.7617 112.362 42.046 109.338 42.5112 108.434C46.3872 100.863 46.0255 87.1159 45.4052 79.5707C45.3277 78.5889 45.2502 77.7102 45.147 76.9609L79.8242 77.3484L84.9405 77.4002C84.9405 77.4259 85.3282 99.3384 85.1215 111.199Z" fill="#1F253C"/>
<path d="M64.6045 103.11C64.527 106.469 61.5812 120.164 44.5525 119.467C43.8032 118.252 43.2865 117.038 42.8987 115.875C41.7617 112.387 42.046 109.363 42.5112 108.459C46.3872 100.888 46.0255 87.141 45.4052 79.5957L64.527 79.7765C64.6302 86.4432 64.7337 96.521 64.6045 103.11Z" fill="url(#paint15_linear)"/>
<path d="M35.3027 39.6735C35.3027 39.6735 37.525 76.6505 41.2717 81.9477C44.3982 86.3405 49.6697 97.09 58.7395 101.793C60.3157 102.594 65.0187 102.542 66.2847 102.516C81.427 102.18 89.024 82.0252 89.024 82.0252C89.696 80.449 93.9855 71.56 94.0112 59.7255C94.037 47.8907 92.6157 36.0817 92.6157 36.0817C92.6157 36.0817 62.7707 18.8206 35.3027 39.6735Z" fill="#1F253C"/>
<path d="M32.4341 35.5118C32.8734 38.3543 34.2689 42.6435 35.6384 44.685C36.4136 54.9693 38.4031 77.8635 41.2714 81.972C44.4756 86.5975 52.6411 97.7863 58.4294 98.6648C60.1089 98.9233 65.0444 98.8458 67.0599 98.7165C76.0264 98.148 85.6904 82.0498 85.6904 82.0498C85.6904 82.0498 79.5406 83.9878 77.4991 79.1815C75.4579 74.3753 63.6231 69.9048 63.6231 69.9048L56.9306 69.388L62.2019 60.008L58.0934 54.8143L43.8814 53.0055L43.5714 49.6463L39.8504 47.114L36.1294 43.5738C36.1294 43.5738 32.3826 35.1758 32.4341 35.5118Z" fill="url(#paint16_linear)"/>
<path d="M87.1629 52.5412C87.1372 52.5412 87.0594 52.5412 86.9819 52.5152L86.7751 52.4895L86.3359 52.4377C86.0259 52.3862 85.7416 52.3602 85.4316 52.3345C84.8371 52.2827 84.2172 52.257 83.6229 52.257C83.0284 52.257 82.4084 52.2827 81.8399 52.3345C81.2454 52.3862 80.6511 52.4895 80.0309 52.5927C79.4109 52.6962 78.7649 52.8255 78.1446 52.9545L76.2066 53.3422C74.8889 53.6005 73.5452 53.8847 72.1757 54.0915L71.4521 48.0967C72.7699 47.9932 74.0879 47.89 75.4831 47.7865C76.8526 47.709 78.2482 47.6315 79.7209 47.6575C80.4444 47.6575 81.1939 47.709 81.9691 47.7865L82.5374 47.8642L83.1059 47.9675C83.4936 48.045 83.8554 48.0967 84.2171 48.2C84.9664 48.381 85.6899 48.6392 86.3876 48.9495C86.7494 49.1045 87.0854 49.2595 87.4212 49.4662C87.6022 49.5695 87.7571 49.647 87.9381 49.7505C88.0156 49.8022 88.1189 49.8537 88.1964 49.9055L88.4807 50.1122L87.1629 52.5412Z" fill="url(#paint17_linear)"/>
<path d="M39.7207 50.8869C40.4185 50.5251 41.0902 50.2151 41.8137 49.9309C42.5115 49.6466 43.235 49.3624 43.9585 49.1299C44.682 48.8971 45.4315 48.6646 46.2065 48.4839C46.5942 48.3804 46.9817 48.3029 47.421 48.2254C47.8345 48.1479 48.248 48.0961 48.6615 48.0444C49.4882 47.9411 50.2635 47.8894 51.0387 47.8636C51.8137 47.8379 52.5632 47.8379 53.3385 47.8379C54.8372 47.8379 56.2842 47.8894 57.7055 47.9411L57.292 53.8069C55.7932 53.6519 54.3202 53.4191 52.8992 53.1866C51.478 52.9541 50.0825 52.7474 48.7905 52.6441C48.4547 52.6181 48.1445 52.5924 47.8345 52.5924C47.6795 52.5924 47.5245 52.5924 47.3435 52.5924C47.1885 52.5924 47.0075 52.6181 46.8525 52.6181C46.1807 52.6699 45.483 52.7474 44.8112 52.8249C43.4157 53.0059 41.9947 53.2384 40.5735 53.4451L39.7207 50.8869Z" fill="url(#paint18_linear)"/>
<path d="M62.1246 75.5655L61.1426 79.4672C61.1426 79.4672 62.7706 80.5785 63.5716 80.6042C64.4243 80.6302 66.1813 79.2865 66.1813 79.2865C63.7783 79.6483 63.7266 77.917 64.6826 75.2812C64.6826 75.2812 63.9333 76.7542 62.1246 75.5655Z" fill="#1F253C"/>
<path d="M69.7464 71.5852C70.1857 72.7997 69.4364 74.1692 68.1959 74.3502C67.7309 74.4277 67.2399 74.531 66.7749 74.712C65.4569 75.2027 64.4234 76.5465 62.9504 76.3915C61.4259 76.2365 60.3664 74.841 59.1779 74.2467C58.7127 74.0142 58.2477 73.8332 57.8342 73.7042C56.9039 73.42 56.4389 72.283 56.9297 71.3785C57.9634 69.4147 60.0822 66.443 61.6069 64.4275C62.4854 63.2647 64.2167 63.239 65.1212 64.376C66.7489 66.469 69.0229 69.5697 69.7464 71.5852Z" fill="#FFFAF9"/>
<path opacity="0.74" d="M68.9455 74.0655L67.085 73.471C67.085 73.471 63.9585 74.0655 62.9248 71.8172C62.2013 70.241 63.3383 66.0292 64.0875 63.6777C64.4753 63.807 64.8113 64.0395 65.0695 64.4012C66.7233 66.4685 68.9973 69.5692 69.7208 71.6105C70.0825 72.5407 69.7208 73.5745 68.9455 74.0655Z" fill="white"/>
<path opacity="0.74" d="M98.378 68.7177C97.887 70.1647 74.786 77.0122 72.5637 75.2552C70.3415 73.498 65.406 65.6685 63.6232 65.5135C61.866 65.3585 57.8092 73.9632 55.3542 74.4025C54.8635 74.48 53.6747 74.5057 52.0727 74.3767C51.9435 74.3767 51.8142 74.3507 51.685 74.3507C51.2457 74.325 50.7807 74.2732 50.3155 74.2215C49.747 74.17 49.1527 74.0925 48.5325 74.0147C48.0675 73.9632 47.6022 73.8857 47.1372 73.8082C46.543 73.7047 45.9485 73.6015 45.3285 73.498C39.1267 72.3095 32.305 69.9062 31.814 65.5135C31.168 59.622 31.9432 50.2162 32.3567 46.7277C32.46 45.8235 33.3127 45.074 34.1137 45.41C35.044 45.7975 36.207 46.1852 37.5765 46.5727C38.1707 46.7277 38.791 46.9087 39.437 47.0637C39.902 47.167 40.393 47.2962 40.884 47.4255C41.4782 47.5547 42.0985 47.7097 42.7185 47.839C43.1062 47.9165 43.4937 47.994 43.9072 48.0972C44.5015 48.2265 45.1217 48.3557 45.7417 48.459C46.362 48.5625 46.9822 48.6917 47.6022 48.795C48.1967 48.8982 48.8167 49.0017 49.4112 49.105C54.7857 50.0095 60.109 50.6297 63.158 50.733C66.233 50.8365 72.2795 50.2162 78.4295 49.4152C78.9722 49.3377 79.5405 49.2602 80.0832 49.1825C80.5225 49.131 80.9617 49.0792 81.3752 49.0017C81.918 48.9242 82.4865 48.8467 83.029 48.7692C83.365 48.7175 83.7267 48.6657 84.0625 48.6142C84.631 48.5365 85.1738 48.459 85.7165 48.3815C86.3365 48.304 86.9307 48.2007 87.4992 48.1232C88.0677 48.0457 88.6105 47.9422 89.153 47.8647C91.2977 47.5287 93.1583 47.2445 94.5278 47.012C95.8715 46.8052 97.086 47.7872 97.2152 49.2085C97.732 54.5572 98.7655 67.5807 98.378 68.7177Z" fill="white"/>
<path d="M74.4501 74.0927C73.6491 74.0927 73.0549 73.9892 72.7449 73.7567C71.8146 73.0072 70.3934 71.276 68.8689 69.4155C66.9309 67.0382 64.5276 64.0925 63.5974 64.015H63.5716C62.8739 64.015 61.5301 66.0822 60.3156 67.891C58.7654 70.2425 57.1374 72.6972 55.7679 72.9557C53.9849 73.2657 40.5224 72.413 34.6049 67.9945C32.9769 66.78 32.0466 65.3587 31.8659 63.8342C31.1941 57.865 32.0209 49.5705 32.4084 46.2888C32.4861 45.6945 32.8219 45.1518 33.3386 44.8418C33.7264 44.6093 34.1656 44.5833 34.5531 44.7383C40.4446 47.219 56.7756 49.803 63.5199 50.0615C69.6956 50.294 87.4736 47.555 94.8639 46.3663C95.5616 46.263 96.2591 46.4438 96.8276 46.883C97.4219 47.3483 97.8096 48.046 97.8614 48.821C98.5849 56.573 99.3599 66.0305 98.9724 67.1158C98.5849 68.201 90.4451 70.63 88.8174 71.121C86.8794 71.6637 78.3261 74.0927 74.4501 74.0927ZM63.5716 63.4725C63.5974 63.4725 63.6231 63.4725 63.6491 63.4725C64.7344 63.5758 66.5949 65.7462 69.3081 69.0797C70.8069 70.9142 72.2021 72.6197 73.0806 73.3175C73.3391 73.5242 74.4501 73.86 79.3599 72.904C87.5254 71.276 97.9904 67.7617 98.4556 66.909C98.7139 66.1597 98.2746 59.4155 97.3186 48.8728C97.2669 48.2525 96.9569 47.6843 96.4919 47.3223C96.0524 46.9865 95.5099 46.8315 94.9414 46.9348C87.5511 48.1235 69.7214 50.8625 63.4941 50.6558C56.6981 50.3973 40.2639 47.7875 34.3206 45.281C34.0364 45.1518 33.7781 45.2553 33.5971 45.3585C33.2611 45.5653 33.0029 45.9528 32.9511 46.3923C32.5636 49.648 31.7624 57.891 32.4084 63.8083C32.5636 65.1778 33.4164 66.4698 34.9149 67.581C40.7031 71.8962 53.9074 72.749 55.6386 72.439C56.8014 72.2322 58.4036 69.7772 59.8249 67.6328C61.5301 65.0488 62.6414 63.4725 63.5716 63.4725Z" fill="#E2F0F1"/>
<path d="M58.4287 86.5469C58.4287 86.5469 59.8242 88.5624 65.5605 88.9499C65.5605 88.9499 63.8035 89.3634 62.4082 89.3634C61.0127 89.3634 59.049 88.6399 58.9197 87.9679C58.8422 87.2704 58.4287 86.5469 58.4287 86.5469Z" fill="#1F253C"/>
<path d="M54.9922 82.6973C54.9922 82.6973 60.2119 84.661 62.4084 84.7645C64.6047 84.8677 70.8839 83.4725 70.8839 83.4725C70.8839 83.4725 66.7754 83.4725 63.6229 83.085C61.7364 82.8783 57.2404 82.9298 54.9922 82.6973Z" fill="#1F253C"/>
<path d="M195.691 30.6297H107.24C106.853 30.6297 106.543 30.3197 106.543 29.932V23.4203C106.543 23.0327 106.853 22.7227 107.24 22.7227H195.691C196.079 22.7227 196.389 23.0327 196.389 23.4203V29.9062C196.415 30.3197 196.079 30.6297 195.691 30.6297ZM107.24 22.9811C106.982 22.9811 106.801 23.1878 106.801 23.4203V29.9062C106.801 30.1645 107.008 30.3455 107.24 30.3455H195.691C195.95 30.3455 196.13 30.1387 196.13 29.9062V23.4203C196.13 23.1619 195.924 22.9811 195.691 22.9811H107.24Z" fill="white"/>
<path d="M133.184 56.7788H108.197C107.706 56.7788 107.293 56.3653 107.293 55.8743V39.0783C107.293 38.5873 107.706 38.1738 108.197 38.1738H133.184C133.675 38.1738 134.089 38.5873 134.089 39.0783V55.8743C134.089 56.3653 133.701 56.7788 133.184 56.7788ZM108.197 38.4323C107.835 38.4323 107.551 38.7166 107.551 39.0783V55.8743C107.551 56.2361 107.835 56.5203 108.197 56.5203H133.184C133.546 56.5203 133.83 56.2361 133.83 55.8743V39.0783C133.83 38.7166 133.546 38.4323 133.184 38.4323H108.197Z" fill="white"/>
<path d="M131.995 114.79H107.033C106.542 114.79 106.129 114.377 106.129 113.886V109.958H106.387V113.886C106.387 114.248 106.672 114.532 107.033 114.532H132.021C132.382 114.532 132.667 114.248 132.667 113.886V104.842C132.667 104.48 132.382 104.196 132.021 104.196H128.636V103.938H132.021C132.512 103.938 132.925 104.351 132.925 104.842V113.886C132.899 114.403 132.512 114.79 131.995 114.79Z" fill="white"/>
<path d="M133.262 99.5698H108.275C107.784 99.5698 107.37 99.1563 107.37 98.6653V61.7658C107.37 61.2748 107.784 60.8613 108.275 60.8613H133.262C133.753 60.8613 134.166 61.2748 134.166 61.7658V98.6653C134.166 99.1563 133.753 99.5698 133.262 99.5698ZM108.275 61.1198C107.913 61.1198 107.629 61.4041 107.629 61.7658V98.6653C107.629 99.0271 107.913 99.3113 108.275 99.3113H133.262C133.624 99.3113 133.908 99.0271 133.908 98.6653V61.7658C133.908 61.4041 133.624 61.1198 133.262 61.1198H108.275Z" fill="white"/>
<path d="M164.063 56.7788H139.075C138.584 56.7788 138.171 56.3653 138.171 55.8743V39.0783C138.171 38.5873 138.584 38.1738 139.075 38.1738H164.063C164.554 38.1738 164.967 38.5873 164.967 39.0783V55.8743C164.967 56.3653 164.554 56.7788 164.063 56.7788ZM139.075 38.4323C138.713 38.4323 138.429 38.7166 138.429 39.0783V55.8743C138.429 56.2361 138.713 56.5203 139.075 56.5203H164.063C164.424 56.5203 164.709 56.2361 164.709 55.8743V39.0783C164.709 38.7166 164.424 38.4323 164.063 38.4323H139.075Z" fill="white"/>
<path d="M164.012 113.807H139.024C138.585 113.807 138.249 113.471 138.249 113.032V103.988C138.249 103.549 138.585 103.213 139.024 103.213H164.012C164.451 103.213 164.787 103.549 164.787 103.988V113.032C164.787 113.471 164.425 113.807 164.012 113.807Z" fill="url(#paint19_linear)"/>
<path d="M164.114 99.5698H139.127C138.636 99.5698 138.223 99.1563 138.223 98.6653V61.7658C138.223 61.2748 138.636 60.8613 139.127 60.8613H164.114C164.605 60.8613 165.019 61.2748 165.019 61.7658V98.6653C165.019 99.1563 164.631 99.5698 164.114 99.5698ZM139.153 61.1198C138.791 61.1198 138.507 61.4041 138.507 61.7658V98.6653C138.507 99.0271 138.791 99.3113 139.153 99.3113H164.14C164.502 99.3113 164.786 99.0271 164.786 98.6653V61.7658C164.786 61.4041 164.502 61.1198 164.14 61.1198H139.153Z" fill="white"/>
<path d="M194.942 56.7788H169.954C169.463 56.7788 169.05 56.3653 169.05 55.8743V39.0783C169.05 38.5873 169.463 38.1738 169.954 38.1738H194.942C195.433 38.1738 195.846 38.5873 195.846 39.0783V55.8743C195.846 56.3653 195.433 56.7788 194.942 56.7788ZM169.954 38.4323C169.593 38.4323 169.308 38.7166 169.308 39.0783V55.8743C169.308 56.2361 169.593 56.5203 169.954 56.5203H194.942C195.303 56.5203 195.588 56.2361 195.588 55.8743V39.0783C195.588 38.7166 195.303 38.4323 194.942 38.4323H169.954Z" fill="white"/>
<path opacity="0.12" d="M134.968 58.2779H109.98C109.541 58.2779 109.205 57.9421 109.205 57.5026V40.7066C109.205 40.2674 109.541 39.9316 109.98 39.9316H134.968C135.407 39.9316 135.743 40.2674 135.743 40.7066V57.5026C135.743 57.9421 135.407 58.2779 134.968 58.2779Z" fill="white"/>
<path opacity="0.12" d="M132.047 43.5488H109.359V46.0813H132.047V43.5488Z" fill="white"/>
<path opacity="0.12" d="M132.047 47.2695H109.359V49.8018H132.047V47.2695Z" fill="white"/>
<path opacity="0.12" d="M132.047 50.9902H109.359V53.5225H132.047V50.9902Z" fill="white"/>
<path opacity="0.12" d="M162.926 43.1348H140.238V45.667H162.926V43.1348Z" fill="white"/>
<path opacity="0.12" d="M162.926 46.8555H140.238V49.3877H162.926V46.8555Z" fill="white"/>
<path opacity="0.12" d="M162.926 50.5781H140.238V53.1104H162.926V50.5781Z" fill="white"/>
<path opacity="0.12" d="M193.779 43.1348H171.092V45.667H193.779V43.1348Z" fill="white"/>
<path opacity="0.12" d="M193.779 46.8555H171.092V49.3877H193.779V46.8555Z" fill="white"/>
<path opacity="0.12" d="M193.779 50.5781H171.092V53.1104H193.779V50.5781Z" fill="white"/>
<path d="M194.864 113.807H169.877C169.438 113.807 169.102 113.471 169.102 113.032V103.988C169.102 103.549 169.438 103.213 169.877 103.213H194.864C195.303 103.213 195.639 103.549 195.639 103.988V113.032C195.639 113.471 195.303 113.807 194.864 113.807Z" fill="url(#paint20_linear)"/>
<path d="M194.993 99.5698H170.006C169.515 99.5698 169.102 99.1563 169.102 98.6653V61.7658C169.102 61.2748 169.515 60.8613 170.006 60.8613H194.993C195.484 60.8613 195.898 61.2748 195.898 61.7658V98.6653C195.898 99.1563 195.484 99.5698 194.993 99.5698ZM170.006 61.1198C169.644 61.1198 169.36 61.4041 169.36 61.7658V98.6653C169.36 99.0271 169.644 99.3113 170.006 99.3113H194.993C195.355 99.3113 195.639 99.0271 195.639 98.6653V61.7658C195.639 61.4041 195.355 61.1198 194.993 61.1198H170.006Z" fill="white"/>
<path opacity="0.12" d="M196.724 100.785H171.737C171.298 100.785 170.962 100.449 170.962 100.009V63.0838C170.962 62.6446 171.298 62.3086 171.737 62.3086H196.724C197.164 62.3086 197.5 62.6446 197.5 63.0838V100.009C197.5 100.423 197.138 100.785 196.724 100.785Z" fill="white"/>
<path d="M129.98 64.918H111.556V66.6492H129.98V64.918Z" fill="url(#paint21_linear)"/>
<path d="M191.609 64.918H173.185V66.6492H191.609V64.918Z" fill="url(#paint22_linear)"/>
<path opacity="0.74" d="M179.464 72.0254H173.185V75.7979H179.464V72.0254Z" fill="white"/>
<path opacity="0.74" d="M184.296 72.0254H180.445V75.7979H184.296V72.0254Z" fill="white"/>
<path d="M191.583 72.0254H185.304V75.7979H191.583V72.0254Z" fill="url(#paint23_linear)"/>
<path d="M184.322 77.8906H173.185V81.6631H184.322V77.8906Z" fill="url(#paint24_linear)"/>
<path d="M191.583 77.8906H185.304V81.6631H191.583V77.8906Z" fill="url(#paint25_linear)"/>
<path opacity="0.74" d="M179.464 83.7305H173.185V87.5032H179.464V83.7305Z" fill="white"/>
<path d="M179.464 89.5703H173.185V93.3431H179.464V89.5703Z" fill="url(#paint26_linear)"/>
<path opacity="0.74" d="M184.296 89.5703H180.445V93.3431H184.296V89.5703Z" fill="white"/>
<path opacity="0.74" d="M191.583 89.5703H185.304V93.3431H191.583V89.5703Z" fill="white"/>
<path opacity="0.74" d="M179.464 68.0195H173.185V69.7508H179.464V68.0195Z" fill="white"/>
<path d="M129.98 82.5938H111.556V83.3947H129.98V82.5938Z" fill="url(#paint27_linear)"/>
<path d="M129.98 84.2461H111.556V85.0471H129.98V84.2461Z" fill="url(#paint28_linear)"/>
<path d="M129.98 85.9258H111.556V86.7268H129.98V85.9258Z" fill="url(#paint29_linear)"/>
<path d="M129.98 87.6055H111.556V88.4064H129.98V87.6055Z" fill="url(#paint30_linear)"/>
<path d="M129.98 89.2598H111.556V90.0608H129.98V89.2598Z" fill="url(#paint31_linear)"/>
<path d="M129.98 90.9395H111.556V91.7405H129.98V90.9395Z" fill="url(#paint32_linear)"/>
<path d="M129.98 92.5938H111.556V93.3948H129.98V92.5938Z" fill="url(#paint33_linear)"/>
<path d="M129.98 94.2734H111.556V95.0744H129.98V94.2734Z" fill="url(#paint34_linear)"/>
<path d="M131.866 68.8711H109.67V79.7498H131.866V68.8711Z" fill="url(#paint35_linear)"/>
<path d="M162.745 64.918H140.549V75.7965H162.745V64.918Z" fill="url(#paint36_linear)"/>
<path d="M162.745 77.1406H140.549V78.6394H162.745V77.1406Z" fill="url(#paint37_linear)"/>
<path d="M146.389 79.9824H140.549V81.4809H146.389V79.9824Z" fill="url(#paint38_linear)"/>
<path d="M162.745 84.0664H140.549V94.9449H162.745V84.0664Z" fill="url(#paint39_linear)"/>
<path d="M162.745 96.3145H140.549V97.8132H162.745V96.3145Z" fill="url(#paint40_linear)"/>
<path opacity="0.2" d="M179.463 106.236H171.039V107.916H179.463V106.236Z" fill="white"/>
<path opacity="0.2" d="M193.727 109.105H171.039V110.785H193.727V109.105Z" fill="white"/>
<path opacity="0.2" d="M148.714 106.236H140.29V107.916H148.714V106.236Z" fill="white"/>
<path opacity="0.2" d="M162.978 109.105H140.29V110.785H162.978V109.105Z" fill="white"/>
<path opacity="0.2" d="M161.272 68.123H158.301V71.0948H161.272V68.123Z" fill="#1F253C"/>
<path opacity="0.2" d="M161.272 87.5273H158.301V90.4991H161.272V87.5273Z" fill="#1F253C"/>
<path d="M134.502 68.0195H133.571V81.663H134.502V68.0195Z" fill="white"/>
<path d="M196.234 40.0352H195.304V53.6787H196.234V40.0352Z" fill="white"/>
<path d="M165.38 84.918H164.45V98.5614H165.38V84.918Z" fill="white"/>
<path d="M28.9715 117.115H24.6562V121.43H28.9715V117.115Z" fill="#161A29" fill-opacity="0.3"/>
<path d="M33.2869 121.43H28.9717V125.745H33.2869V121.43Z" fill="#161A29" fill-opacity="0.3"/>
<path d="M191.428 25.6152H188.456V28.5867H191.428V25.6152Z" fill="url(#paint41_linear)"/>
<path d="M160.626 67.1152H157.654V70.0867H160.626V67.1152Z" fill="url(#paint42_linear)"/>
<path d="M108.3 67.27H107.163C106.647 67.27 106.259 66.8565 106.259 66.3655V65.2287C106.259 64.7117 106.672 64.3242 107.163 64.3242H108.3C108.817 64.3242 109.205 64.7377 109.205 65.2287V66.3655C109.205 66.8565 108.791 67.27 108.3 67.27Z" fill="url(#paint43_linear)"/>
<path d="M131.737 62.6187H129.618C129.385 62.6187 129.179 62.412 129.179 62.1795C129.179 61.947 129.385 61.7402 129.618 61.7402H131.737C131.969 61.7402 132.176 61.947 132.176 62.1795C132.15 62.438 131.969 62.6187 131.737 62.6187Z" fill="url(#paint44_linear)"/>
<path d="M163.184 62.6187H161.065C160.833 62.6187 160.626 62.412 160.626 62.1795C160.626 61.947 160.833 61.7402 161.065 61.7402H163.184C163.417 61.7402 163.623 61.947 163.623 62.1795C163.598 62.438 163.417 62.6187 163.184 62.6187Z" fill="url(#paint45_linear)"/>
<path d="M133.649 36.4957H131.53C131.298 36.4957 131.091 36.2889 131.091 36.0564C131.091 35.8239 131.298 35.6172 131.53 35.6172H133.649C133.882 35.6172 134.088 35.8239 134.088 36.0564C134.088 36.2889 133.907 36.4957 133.649 36.4957Z" fill="url(#paint46_linear)"/>
<path d="M195.329 95.5387V93.4197C195.329 93.1872 195.536 92.9805 195.768 92.9805C196.001 92.9805 196.208 93.1872 196.208 93.4197V95.5387C196.208 95.7712 196.001 95.978 195.768 95.978C195.536 95.952 195.329 95.7712 195.329 95.5387Z" fill="url(#paint47_linear)"/>
<path opacity="0.68" d="M55.9224 61.7921C55.9224 61.7921 55.8966 61.7921 55.9224 61.7921C49.2816 61.2236 42.6664 60.0348 36.2581 58.2778C35.7671 58.1486 35.3796 57.8386 35.1471 57.3991C34.9144 56.9858 34.8629 56.5206 34.9921 56.0813C35.2504 55.1768 36.2581 54.6343 37.1884 54.8926C43.9326 56.7531 50.8836 57.9418 57.8864 58.4328C58.0414 58.4328 58.1446 58.5621 58.1189 58.7171C58.0929 58.8721 57.9896 58.9753 57.8346 58.9496C50.8319 58.4586 43.8294 57.2441 37.0334 55.3836C36.3616 55.2028 35.6639 55.5646 35.4829 56.2363C35.4054 56.5466 35.4314 56.8566 35.5864 57.1408C35.7671 57.4508 36.0514 57.6576 36.3874 57.7608C42.7699 59.5181 49.3591 60.7068 55.9484 61.2751C56.1034 61.2751 56.2066 61.4043 56.1809 61.5593C56.1549 61.6886 56.0516 61.7921 55.9224 61.7921Z" fill="url(#paint48_linear)"/>
<path opacity="0.68" d="M70.1604 62.1021C70.0312 62.1021 69.9019 61.9988 69.9019 61.8436C69.9019 61.6886 70.0054 61.5853 70.1604 61.5853C78.3257 61.2236 86.4654 59.9573 94.3467 57.7868C94.6824 57.6833 94.9667 57.4766 95.1477 57.1666C95.3027 56.8823 95.3544 56.5466 95.2509 56.2623C95.0702 55.6163 94.3725 55.2286 93.7007 55.4096C85.7677 57.6058 77.5765 58.8463 69.3335 59.1563C69.1785 59.1821 69.0752 59.0528 69.0752 58.8978C69.0752 58.7428 69.1785 58.6396 69.3335 58.6396C77.5247 58.3293 85.6902 57.0891 93.5715 54.8926C94.5017 54.6343 95.4837 55.1768 95.768 56.0813C95.897 56.5206 95.8455 56.9858 95.6127 57.3991C95.3802 57.8386 94.9667 58.1226 94.5017 58.2778C86.543 60.4483 78.3774 61.7403 70.1604 62.1021Z" fill="url(#paint49_linear)"/>
<path d="M164.658 36.4957H162.539C162.306 36.4957 162.1 36.2889 162.1 36.0564C162.1 35.8239 162.306 35.6172 162.539 35.6172H164.658C164.89 35.6172 165.097 35.8239 165.097 36.0564C165.097 36.2889 164.89 36.4957 164.658 36.4957Z" fill="url(#paint50_linear)"/>
<path d="M195.33 36.4957H193.211C192.978 36.4957 192.771 36.2889 192.771 36.0564C192.771 35.8239 192.978 35.6172 193.211 35.6172H195.33C195.562 35.6172 195.769 35.8239 195.769 36.0564C195.769 36.2889 195.588 36.4957 195.33 36.4957Z" fill="url(#paint51_linear)"/>
<path d="M160.626 86.5215H157.654V89.493H160.626V86.5215Z" fill="url(#paint52_linear)"/>
<path opacity="0.74" d="M185.795 25.6152H182.823V28.5867H185.795V25.6152Z" fill="white"/>
<path d="M135.38 59.5691C135.303 59.5691 135.251 59.5173 135.251 59.4398V46.8558C135.251 46.7783 135.303 46.7266 135.38 46.7266C135.458 46.7266 135.509 46.7783 135.509 46.8558V59.4398C135.509 59.5173 135.458 59.5691 135.38 59.5691Z" fill="white"/>
<path d="M106.233 95.694C106.155 95.694 106.104 95.6425 106.104 95.5648V82.9808C106.104 82.9033 106.155 82.8516 106.233 82.8516C106.31 82.8516 106.362 82.9033 106.362 82.9808V95.5648C106.362 95.6165 106.31 95.694 106.233 95.694Z" fill="white"/>
<path d="M104.941 99.0281C104.863 99.0281 104.812 98.9766 104.812 98.8988V86.3148C104.812 86.2373 104.863 86.1855 104.941 86.1855C105.018 86.1855 105.07 86.2373 105.07 86.3148V98.8988C105.07 98.9766 105.018 99.0281 104.941 99.0281Z" fill="white"/>
<path d="M104.941 85.2026C104.863 85.2026 104.812 85.1508 104.812 85.0733V73.5746C104.812 73.4971 104.863 73.4453 104.941 73.4453C105.018 73.4453 105.07 73.4971 105.07 73.5746V85.0733C105.07 85.1251 105.018 85.2026 104.941 85.2026Z" fill="white"/>
<path opacity="0.1" d="M86.6981 71.481C86.0263 71.6363 85.4578 71.7395 85.0701 71.817L78.4551 49.4395C78.9978 49.362 79.5663 49.2845 80.1088 49.207L86.6981 71.481Z" fill="white"/>
<path opacity="0.16" d="M89.5399 70.7847C88.9971 70.9397 88.4546 71.0689 87.9379 71.1982C87.9119 71.1724 87.9119 71.1207 87.9119 71.0689L81.4004 49.0274C81.9429 48.9499 82.5114 48.8724 83.0541 48.7949L89.5399 70.7329C89.5399 70.7589 89.5399 70.7847 89.5399 70.7847Z" fill="white"/>
<path opacity="0.59" d="M92.3826 69.9306C91.8659 70.1116 91.3231 70.2924 90.8064 70.4474C90.7806 70.3959 90.7806 70.3441 90.7546 70.2924L84.0879 48.6644C84.6564 48.5869 85.1991 48.5094 85.7416 48.4316L92.3826 69.9306Z" fill="white"/>
<path opacity="0.63" d="M95.1471 68.7694C94.6564 69.0276 94.1394 69.2601 93.5969 69.4669L87.5244 48.1489C88.0929 48.0714 88.6357 47.9681 89.1782 47.8906L95.1471 68.7694Z" fill="white"/>
<path opacity="0.1" d="M46.5163 71.663C45.9221 71.5595 45.3018 71.4303 44.6818 71.3013L37.5498 46.5723C38.1443 46.7273 38.7643 46.9083 39.4103 47.0633L46.5163 71.663Z" fill="white"/>
<path opacity="0.16" d="M49.721 72.1284C49.1525 72.0509 48.5583 71.9732 47.938 71.8957L40.8838 47.4512C41.478 47.5804 42.0983 47.7354 42.7185 47.8647L49.721 72.1284Z" fill="white"/>
<path opacity="0.59" d="M52.8474 72.4128C52.3049 72.3868 51.7106 72.3353 51.0904 72.2836L43.8809 48.123C44.4754 48.2523 45.0954 48.3815 45.7156 48.4848L52.8474 72.4128Z" fill="white"/>
<path opacity="0.63" d="M55.9478 72.3092C55.8446 72.3609 55.7671 72.3869 55.6636 72.3869C55.4053 72.4384 54.9143 72.4384 54.2423 72.4384L47.6016 48.7949C48.1958 48.8982 48.8161 49.0017 49.4103 49.1049L55.9478 72.3092Z" fill="white"/>
<path opacity="0.2" d="M98.455 64.9433C101.894 64.9433 104.682 62.155 104.682 58.7158C104.682 55.2765 101.894 52.4883 98.455 52.4883C95.0155 52.4883 92.2275 55.2765 92.2275 58.7158C92.2275 62.155 95.0155 64.9433 98.455 64.9433Z" fill="white"/>
<path d="M97.6801 63.4463C94.7858 63.4463 92.4346 61.0948 92.4346 58.2006C92.4346 55.3066 94.7858 52.9551 97.6801 52.9551C100.574 52.9551 102.926 55.3066 102.926 58.2006C102.926 61.0948 100.574 63.4463 97.6801 63.4463ZM97.6801 53.2136C94.9408 53.2136 92.6928 55.4616 92.6928 58.2006C92.6928 60.9398 94.9408 63.1878 97.6801 63.1878C100.419 63.1878 102.667 60.9398 102.667 58.2006C102.667 55.4616 100.419 53.2136 97.6801 53.2136Z" fill="url(#paint53_linear)"/>
<path d="M97.68 61.8698C95.6645 61.8698 94.0107 60.216 94.0107 58.2005C94.0107 56.185 95.6645 54.5312 97.68 54.5312C99.6955 54.5312 101.349 56.185 101.349 58.2005C101.349 60.216 99.6955 61.8698 97.68 61.8698ZM97.68 54.7897C95.7937 54.7897 94.2692 56.3143 94.2692 58.2005C94.2692 60.0868 95.7937 61.6115 97.68 61.6115C99.5665 61.6115 101.091 60.0868 101.091 58.2005C101.091 56.3143 99.5405 54.7897 97.68 54.7897Z" fill="url(#paint54_linear)"/>
<path d="M97.6797 60.7852C96.2587 60.7852 95.0957 59.6224 95.0957 58.2012C95.0957 56.7799 96.2587 55.6172 97.6797 55.6172C99.1009 55.6172 100.264 56.7799 100.264 58.2012C100.264 59.6224 99.1009 60.7852 97.6797 60.7852ZM97.6797 55.8754C96.3877 55.8754 95.3542 56.9349 95.3542 58.2012C95.3542 59.4672 96.4137 60.5267 97.6797 60.5267C98.9459 60.5267 100.005 59.4672 100.005 58.2012C100.005 56.9349 98.9717 55.8754 97.6797 55.8754Z" fill="url(#paint55_linear)"/>
<path d="M97.68 59.5691C96.9305 59.5691 96.3105 58.9491 96.3105 58.1996C96.3105 57.4503 96.9305 56.8301 97.68 56.8301C98.4293 56.8301 99.0496 57.4503 99.0496 58.1996C99.0496 58.9491 98.4293 59.5691 97.68 59.5691ZM97.68 57.0886C97.0598 57.0886 96.5688 57.5796 96.5688 58.1996C96.5688 58.8198 97.0598 59.3108 97.68 59.3108C98.3001 59.3108 98.7911 58.8198 98.7911 58.1996C98.7911 57.5796 98.3001 57.0886 97.68 57.0886Z" fill="url(#paint56_linear)"/>
<path d="M97.68 64.557C94.1915 64.557 91.3232 61.7147 91.3232 58.2005C91.3232 54.6862 94.1657 51.8438 97.68 51.8438C101.194 51.8438 104.036 54.6862 104.036 58.2005C104.036 61.7147 101.168 64.557 97.68 64.557ZM97.68 52.1022C94.3207 52.1022 91.5817 54.8412 91.5817 58.2005C91.5817 61.5595 94.3207 64.2987 97.68 64.2987C101.039 64.2987 103.778 61.5595 103.778 58.2005C103.778 54.8412 101.039 52.1022 97.68 52.1022Z" fill="url(#paint57_linear)"/>
<path opacity="0.11" d="M42.3377 53.9396C47.8627 34.5019 47.3002 17.3114 41.0819 15.544C34.8634 13.7765 25.3434 28.1011 19.8187 47.5391C14.2939 66.9769 14.8562 84.1674 21.0747 85.9349C27.2932 87.7024 36.8129 73.3776 42.3377 53.9396Z" fill="url(#paint58_linear)"/>
<path opacity="0.33" d="M37.7977 50.699C41.3014 38.3717 40.9369 27.4677 36.9834 26.344C33.0299 25.2202 26.9847 34.3025 23.481 46.6297C19.9772 58.9567 20.3418 69.8607 24.2953 70.9845C28.2487 72.1082 34.2939 63.026 37.7977 50.699Z" fill="url(#paint59_linear)"/>
<path opacity="0.33" d="M36.2447 50.2466C38.5272 42.2161 38.2964 35.1146 35.7294 34.3851C33.1624 33.6553 29.2312 39.5738 26.9487 47.6043C24.6662 55.6348 24.8968 62.7363 27.4639 63.4658C30.0309 64.1956 33.9622 58.2771 36.2447 50.2466Z" fill="url(#paint60_linear)"/>
<path d="M27.8862 63.9368C27.7052 63.9368 27.5244 63.9108 27.3692 63.8591C25.9482 63.4458 25.0954 61.4043 24.992 58.0711C24.8886 54.8151 25.4829 50.6808 26.6974 46.4431C27.9119 42.2053 29.5657 38.3808 31.3744 35.6678C33.2092 32.9028 35.0179 31.5851 36.4392 31.9983C37.8604 32.4118 38.7132 34.4533 38.8164 37.7866C38.9197 41.0423 38.3254 45.1768 37.1109 49.4146C34.7079 57.8386 30.7802 63.9368 27.8862 63.9368ZM35.8964 32.2568C34.6819 32.2568 33.1574 33.5231 31.6329 35.8486C29.8499 38.5361 28.1962 42.3346 27.0074 46.5463C25.8189 50.7326 25.2247 54.8411 25.3279 58.0711C25.4312 61.1976 26.2064 63.1873 27.4727 63.5491C27.6277 63.6008 27.7827 63.6008 27.9377 63.6008C30.6252 63.6008 34.5012 57.4508 36.8009 49.3113C37.9894 45.1251 38.5839 41.0166 38.4804 37.7866C38.3772 34.6601 37.6019 32.6703 36.3357 32.3086C36.1807 32.2826 36.0514 32.2568 35.8964 32.2568Z" fill="#E2F0F1"/>
<path d="M29.7211 56.7011C29.6436 56.7011 29.5661 56.7011 29.4886 56.6751L29.5401 56.3651C29.7729 56.4169 30.0054 56.3651 30.2896 56.2101L30.4446 56.4944C30.1861 56.6236 29.9536 56.7011 29.7211 56.7011ZM28.6876 56.0809C28.5324 55.8484 28.4034 55.5641 28.2999 55.2281L28.6101 55.1506C28.6876 55.4606 28.8166 55.7191 28.9459 55.9259L28.6876 56.0809ZM31.1941 55.9259L30.9614 55.6934C31.1424 55.5124 31.3491 55.3056 31.5299 55.0474L31.7884 55.2541C31.5816 55.5124 31.4006 55.7449 31.1941 55.9259ZM32.3309 54.5046L32.0466 54.3239C32.2019 54.0911 32.3569 53.8329 32.5119 53.5744L32.7961 53.7294C32.6411 54.0136 32.4861 54.2721 32.3309 54.5046ZM28.1449 54.3496C28.1191 54.0654 28.0931 53.7811 28.0674 53.4451H28.4034C28.4034 53.7554 28.4291 54.0396 28.4809 54.3239L28.1449 54.3496ZM33.2096 52.9541L32.9254 52.7991C33.0544 52.5409 33.1836 52.2824 33.2871 51.9981L33.5971 52.1274C33.4679 52.4116 33.3386 52.6701 33.2096 52.9541ZM28.4034 52.5409H28.0674C28.0674 52.2566 28.0931 51.9464 28.1191 51.6364L28.4549 51.6621C28.4291 51.9724 28.4034 52.2566 28.4034 52.5409ZM33.9331 51.3004L33.6229 51.1714C33.7264 50.9129 33.8296 50.6286 33.9331 50.3444L34.2431 50.4479C34.1399 50.7579 34.0364 51.0421 33.9331 51.3004ZM28.5584 50.7836L28.2224 50.7321C28.2481 50.4479 28.2999 50.1376 28.3516 49.8534L28.6616 49.9051C28.6359 50.2151 28.5841 50.4994 28.5584 50.7836ZM34.5274 49.6209L34.2174 49.5176C34.2949 49.2334 34.3981 48.9491 34.4756 48.6649C34.5016 48.5874 34.5274 48.4839 34.5531 48.4064L34.8634 48.4839C34.8374 48.5614 34.8116 48.6649 34.7859 48.7424C34.7081 49.0524 34.6049 49.3366 34.5274 49.6209ZM28.8426 49.0524L28.5324 48.9749C28.5841 48.6906 28.6616 48.4064 28.7391 48.0964L29.0494 48.1739C28.9719 48.4839 28.8941 48.7681 28.8426 49.0524ZM35.0701 47.6311L34.7599 47.5536C34.8374 47.2694 34.8891 46.9851 34.9409 46.7009L35.2509 46.7784C35.2251 47.0369 35.1476 47.3469 35.0701 47.6311ZM29.2561 47.3469L28.9459 47.2694L28.9719 47.1401C29.0494 46.9076 29.1009 46.6494 29.1784 46.4166L29.4886 46.5201C29.4111 46.7526 29.3336 46.9851 29.2819 47.2436L29.2561 47.3469ZM35.4319 45.8741L35.1216 45.8224C35.1734 45.5124 35.2251 45.2281 35.2509 44.9439L35.5869 44.9956C35.5351 45.2799 35.4834 45.5641 35.4319 45.8741ZM29.7986 45.6674L29.4886 45.5641C29.5919 45.2799 29.6954 44.9956 29.7986 44.7371L30.1086 44.8664C30.0054 45.0989 29.9021 45.3831 29.7986 45.6674ZM35.6644 44.0911L35.3284 44.0654C35.3541 43.7551 35.3801 43.4709 35.3801 43.1866H35.7161C35.6901 43.4969 35.6901 43.8069 35.6644 44.0911ZM30.4446 44.0136L30.1346 43.8844C30.2639 43.6001 30.3929 43.3419 30.4964 43.0576L30.7806 43.2126C30.6771 43.4709 30.5481 43.7294 30.4446 44.0136ZM31.1941 42.4374L30.9099 42.2824C31.0649 41.9981 31.2199 41.7396 31.3749 41.5071L31.6591 41.6879C31.5041 41.8946 31.3491 42.1531 31.1941 42.4374ZM35.3801 42.3081C35.3541 41.9981 35.3284 41.7139 35.3026 41.4296L35.6384 41.3779C35.6901 41.6621 35.7161 41.9464 35.7161 42.2824L35.3801 42.3081ZM32.1501 40.9386L31.8916 40.7319C32.0984 40.4736 32.2794 40.2409 32.4861 40.0341L32.7186 40.2669C32.5376 40.4736 32.3309 40.7061 32.1501 40.9386ZM35.0959 40.6026C34.9924 40.2926 34.8634 40.0341 34.7341 39.8534L34.9924 39.6466C35.1734 39.8534 35.3026 40.1376 35.4059 40.4994L35.0959 40.6026ZM33.3646 39.7499L33.1836 39.4659C33.5196 39.2591 33.8296 39.1816 34.1139 39.1816L34.0881 39.5174C33.8814 39.5174 33.6229 39.5949 33.3646 39.7499Z" fill="#385A7D"/>
<path d="M25.8188 72.0762C25.5603 72.0762 25.3018 72.0505 25.0435 71.973C25.0175 71.973 24.9918 71.973 24.9918 71.947L25.0953 71.637L25.1468 71.6628C25.4053 71.7403 25.6378 71.7663 25.922 71.7663V72.102C25.8963 72.0762 25.8703 72.0762 25.8188 72.0762ZM26.8265 71.9212L26.723 71.6113C26.9815 71.5335 27.2398 71.4303 27.524 71.2753L27.6793 71.5595C27.395 71.7145 27.1108 71.8437 26.8265 71.9212ZM24.1649 71.5335C23.9323 71.3528 23.6998 71.146 23.4931 70.8875L23.7515 70.681C23.9323 70.9135 24.1391 71.0943 24.3716 71.2493L24.1649 71.5335ZM28.4543 71.0943L28.2735 70.836C28.506 70.681 28.7385 70.5 28.9713 70.2933L29.1778 70.5518C28.9195 70.7585 28.687 70.9393 28.4543 71.0943ZM22.9763 70.1383C22.8471 69.8798 22.692 69.6215 22.5887 69.3112L22.8987 69.1823C23.0021 69.4665 23.1313 69.7248 23.2863 69.9573L22.9763 70.1383ZM29.8238 69.9315L29.5913 69.699C29.798 69.4922 30.0048 69.2855 30.2115 69.053L30.444 69.2598C30.2373 69.518 30.0305 69.7508 29.8238 69.9315ZM31.0383 68.6137L30.78 68.407C30.9608 68.1745 31.1418 67.9418 31.3225 67.7093L31.581 67.916C31.4 68.1485 31.2193 68.3812 31.0383 68.6137ZM22.2527 68.4845C22.1752 68.2002 22.0977 67.916 22.0202 67.606L22.3303 67.5285C22.4078 67.8128 22.4853 68.097 22.5628 68.3812L22.2527 68.4845ZM32.1235 67.1925L31.8653 67.0115C32.0203 66.779 32.2013 66.5208 32.3563 66.288L32.6405 66.469C32.4595 66.7015 32.2788 66.96 32.1235 67.1925ZM21.8393 66.7272C21.7876 66.4432 21.7359 66.133 21.7101 65.8487L22.046 65.7972C22.0977 66.1072 22.1235 66.3915 22.1752 66.6758L21.8393 66.7272ZM33.1055 65.6937L32.8213 65.513C32.9763 65.2803 33.1315 65.022 33.2865 64.7635L33.5708 64.9185C33.4155 65.2028 33.2605 65.4612 33.1055 65.6937ZM21.6067 64.9445C21.5809 64.6603 21.5551 64.35 21.5292 64.04L21.8651 64.0143C21.891 64.3243 21.9168 64.6085 21.9427 64.8928L21.6067 64.9445ZM34.0358 64.1693L33.7515 64.0143C33.9065 63.7558 34.0358 63.4972 34.1908 63.239L34.475 63.394C34.32 63.6525 34.165 63.9108 34.0358 64.1693ZM21.5034 63.1615C21.5034 62.8772 21.4775 62.567 21.4775 62.257H21.8135C21.8135 62.567 21.8135 62.8513 21.8393 63.1355L21.5034 63.1615ZM34.8628 62.593L34.5785 62.438C34.7078 62.1795 34.8368 61.921 34.966 61.637L35.2503 61.792C35.147 62.0762 35.0178 62.3345 34.8628 62.593ZM21.8393 61.4043H21.5034C21.5034 61.12 21.5292 60.81 21.5292 60.5L21.8651 60.5257C21.8393 60.81 21.8393 61.0943 21.8393 61.4043ZM35.6638 61.0168L35.3795 60.8875C35.5088 60.629 35.6378 60.345 35.7413 60.0865L36.0513 60.2158C35.922 60.474 35.793 60.7325 35.6638 61.0168ZM21.9168 59.6213L21.5809 59.5955C21.6067 59.3113 21.6326 59.0012 21.6326 58.717L21.9685 58.7427C21.9427 59.027 21.9168 59.337 21.9168 59.6213ZM36.413 59.3887L36.103 59.2595C36.2323 59.0012 36.3355 58.717 36.4648 58.4328L36.7748 58.562C36.6458 58.8463 36.5165 59.1045 36.413 59.3887ZM22.046 57.8643L21.7101 57.8385C21.7359 57.5543 21.7618 57.244 21.8135 56.9598L22.1494 56.9857C22.0977 57.27 22.0719 57.58 22.046 57.8643ZM37.085 57.735L36.7748 57.6058C36.8783 57.3215 36.9815 57.0632 37.1108 56.779L37.4208 56.9082C37.3175 57.1925 37.214 57.4768 37.085 57.735ZM22.2527 56.107L21.9168 56.0555C21.9427 55.7713 21.9943 55.461 22.046 55.177L22.3819 55.2285C22.3303 55.5128 22.2786 55.797 22.2527 56.107ZM37.731 56.0812L37.4208 55.978C37.5243 55.6938 37.6275 55.4353 37.731 55.151L38.041 55.2545C37.9378 55.5388 37.8343 55.797 37.731 56.0812ZM38.351 54.4017L38.041 54.2982C38.1443 54.014 38.2218 53.7298 38.3253 53.4715L38.6353 53.5747C38.532 53.859 38.4545 54.1175 38.351 54.4017ZM22.4853 54.35L22.1752 54.2982C22.2269 54.014 22.2786 53.704 22.3303 53.4198L22.6403 53.4715C22.5887 53.7558 22.537 54.0657 22.4853 54.35ZM38.9195 52.722L38.6095 52.6188C38.687 52.3345 38.7903 52.0502 38.8678 51.766L39.178 51.8693C39.1005 52.1535 38.997 52.4378 38.9195 52.722ZM22.7954 52.593L22.4853 52.5412C22.537 52.257 22.5887 51.9728 22.6662 51.6628L22.9763 51.7142C22.8987 52.0245 22.8471 52.3087 22.7954 52.593ZM39.4363 51.0168L39.1263 50.9132C39.2038 50.629 39.2813 50.3448 39.3848 50.0605L39.6948 50.138C39.6173 50.4483 39.5138 50.7325 39.4363 51.0168ZM23.1313 50.8615L22.8212 50.784C22.8729 50.4998 22.9504 50.2155 23.0021 49.9055L23.3122 49.983C23.2605 50.293 23.2088 50.5772 23.1313 50.8615ZM39.8498 49.5438L39.5398 49.4663C39.6173 49.182 39.6948 48.8977 39.7723 48.6135L40.0823 48.691C40.0048 48.9753 39.9533 49.2595 39.8498 49.5438ZM23.5189 49.1302L23.2088 49.0527C23.2863 48.7685 23.338 48.4843 23.4155 48.2L23.7256 48.2775C23.6739 48.5618 23.5964 48.846 23.5189 49.1302ZM40.315 47.8125L40.0048 47.735C40.0823 47.4508 40.1598 47.1665 40.2115 46.8823L40.5218 46.9598C40.47 47.244 40.3925 47.5283 40.315 47.8125ZM23.9582 47.399L23.6481 47.3215C23.7256 47.0372 23.8031 46.753 23.8807 46.4688L24.1907 46.5462C24.1132 46.8305 24.0357 47.1147 23.9582 47.399ZM40.7283 46.0812L40.4183 46.0037C40.4958 45.7195 40.5475 45.4353 40.5993 45.125L40.9093 45.2028C40.8575 45.5128 40.8058 45.797 40.7283 46.0812ZM24.4233 45.6935L24.1132 45.616C24.1907 45.3318 24.2683 45.0475 24.3716 44.7632L24.6817 44.8667C24.6042 45.125 24.5008 45.4093 24.4233 45.6935ZM41.09 44.35L40.78 44.2982C40.8318 44.014 40.8835 43.704 40.961 43.4198L41.271 43.4712C41.2193 43.7555 41.1678 44.0397 41.09 44.35ZM24.9401 43.9883L24.63 43.8848C24.7075 43.6005 24.8109 43.3163 24.8884 43.032L25.1985 43.1355C25.121 43.4198 25.0175 43.704 24.9401 43.9883ZM41.426 42.5928L41.116 42.541C41.1678 42.2568 41.2193 41.9467 41.271 41.6625L41.581 41.7142C41.5295 41.9985 41.4778 42.3085 41.426 42.5928ZM25.4828 42.3085L25.1728 42.2052C25.276 41.921 25.3535 41.6368 25.457 41.3525L25.767 41.4557C25.6635 41.74 25.586 42.0242 25.4828 42.3085ZM41.7103 40.8358L41.3743 40.784C41.426 40.4998 41.4518 40.1897 41.5035 39.9055L41.8395 39.957C41.7878 40.2413 41.762 40.5255 41.7103 40.8358ZM26.077 40.629L25.767 40.5255C25.8703 40.2413 25.9738 39.957 26.077 39.6987L26.3873 39.802C26.258 40.0862 26.1805 40.3448 26.077 40.629ZM41.9428 39.0527L41.607 39.0267C41.6328 38.7425 41.6845 38.4325 41.7103 38.1483L42.0463 38.1743C41.9945 38.4585 41.9688 38.7685 41.9428 39.0527ZM26.6973 38.9753L26.3873 38.846C26.4905 38.5618 26.5938 38.3033 26.723 38.019L27.0333 38.1483C26.904 38.4325 26.8005 38.691 26.6973 38.9753ZM27.369 37.3473L27.059 37.218C27.1883 36.9337 27.2915 36.6755 27.4208 36.3913L27.7308 36.5205C27.6015 36.7788 27.4725 37.063 27.369 37.3473ZM42.1238 37.2955L41.7878 37.2697C41.8138 36.9597 41.8395 36.6755 41.8653 36.3913L42.2013 36.417C42.1755 36.7012 42.1495 36.9855 42.1238 37.2955ZM28.0668 35.7192L27.7568 35.5902C27.8858 35.306 28.015 35.0475 28.1443 34.789L28.4285 34.9183C28.3253 35.1768 28.196 35.435 28.0668 35.7192ZM42.227 35.5125L41.8913 35.4868C41.917 35.1768 41.917 34.8925 41.917 34.6082H42.253C42.253 34.9182 42.253 35.2025 42.227 35.5125ZM28.842 34.1172L28.5578 33.9622C28.687 33.7037 28.816 33.4195 28.9713 33.1613L29.2555 33.3162C29.1003 33.5745 28.9713 33.833 28.842 34.1172ZM41.9428 33.7298C41.9428 33.4195 41.9428 33.1353 41.9428 32.851H42.2788C42.2788 33.1353 42.2788 33.4455 42.2788 33.7298H41.9428ZM29.6688 32.541L29.3845 32.386C29.5395 32.1275 29.6688 31.8693 29.8238 31.6108L30.108 31.7658C29.953 32.0243 29.798 32.2825 29.6688 32.541ZM41.8913 31.9468C41.8653 31.6365 41.8653 31.3525 41.8395 31.0683L42.1755 31.0422C42.2013 31.3265 42.227 31.6365 42.227 31.9468H41.8913ZM30.5475 30.9905L30.2633 30.8097C30.4183 30.5512 30.5733 30.293 30.7283 30.0605L31.0125 30.2412C30.8315 30.4997 30.6765 30.758 30.5475 30.9905ZM41.736 30.1895C41.7103 29.9053 41.6585 29.5953 41.607 29.311L41.917 29.2593C41.9688 29.5435 42.0203 29.8538 42.0463 30.138L41.736 30.1895ZM31.4775 29.5177L31.1935 29.3368C31.3743 29.0785 31.5293 28.846 31.7103 28.6133L31.9685 28.7943C31.8135 29.0268 31.6585 29.2592 31.4775 29.5177ZM41.4518 28.4583C41.3743 28.174 41.3228 27.8897 41.2193 27.6055L41.5295 27.5023C41.607 27.7865 41.6845 28.0708 41.762 28.3808L41.4518 28.4583ZM32.5113 28.0707L32.2528 27.864C32.4338 27.6315 32.6145 27.3988 32.8213 27.1663L33.0798 27.373C32.873 27.6055 32.692 27.8382 32.5113 28.0707ZM40.935 26.7787C40.8318 26.4945 40.7025 26.236 40.5733 26.0035L40.8575 25.8485C40.9868 26.1067 41.116 26.3652 41.2453 26.6752L40.935 26.7787ZM33.6483 26.727L33.4158 26.4945C33.6223 26.262 33.829 26.0552 34.0358 25.8485L34.2683 26.081C34.0615 26.2877 33.855 26.4945 33.6483 26.727ZM34.9143 25.5125L34.7078 25.2542C34.9403 25.0475 35.1985 24.8665 35.4313 24.7115L35.612 24.9699C35.3795 25.125 35.147 25.3058 34.9143 25.5125ZM40.1083 25.28C39.9273 25.0475 39.7205 24.8407 39.5138 24.6856L39.7205 24.4272C39.9533 24.6081 40.1598 24.8407 40.3665 25.0732L40.1083 25.28ZM36.3355 24.5306L36.1805 24.2464C36.4648 24.0913 36.749 23.988 37.0333 23.9104L37.1108 24.2205C36.8783 24.2981 36.6198 24.4014 36.3355 24.5306ZM38.7903 24.2722C38.7388 24.2464 38.687 24.2464 38.6353 24.2205C38.4285 24.1689 38.196 24.1172 37.9893 24.1172V23.7812C38.2478 23.7812 38.4803 23.8071 38.7388 23.8846C38.7903 23.9104 38.8678 23.9105 38.9195 23.9363L38.7903 24.2722Z" fill="#E2F0F1"/>
<path d="M22.9501 83.3935C22.5625 83.3935 22.2007 83.3418 21.8389 83.2383C15.5598 81.4555 14.9655 64.1685 20.4953 44.711C26.025 25.2533 35.6375 10.8605 41.9167 12.6434C44.9915 13.522 46.8005 18.0182 47.0587 25.331C47.2912 32.592 45.9477 41.7653 43.2862 51.1968C40.5987 60.6025 36.9295 69.1298 32.8985 75.1763C29.3067 80.5253 25.8442 83.3935 22.9501 83.3935ZM40.8055 12.7468C34.6815 12.7468 25.9475 26.5195 20.7537 44.7885C15.2497 64.1168 15.7924 81.2745 21.9423 83.0058C28.0922 84.763 37.5497 70.4475 43.0535 51.1193C45.7152 41.7393 47.0587 32.592 46.8262 25.331C46.5937 18.1474 44.8365 13.7287 41.8907 12.876C41.5032 12.7985 41.1672 12.7468 40.8055 12.7468Z" fill="url(#paint61_linear)"/>
<path d="M119.98 104.221H33.08C31.8398 104.221 30.832 103.213 30.832 101.973V53.3933C30.832 53.238 30.9353 53.1348 31.0903 53.1348C31.2453 53.1348 31.3488 53.238 31.3488 53.3933V101.973C31.3488 102.929 32.124 103.704 33.08 103.704H119.98C120.135 103.704 120.239 103.807 120.239 103.962C120.239 104.117 120.109 104.221 119.98 104.221Z" fill="white"/>
<path d="M62.1756 130.94C62.1496 130.94 62.1496 130.94 62.1239 130.94C54.1134 130.914 47.7826 126.909 43.7516 119.312C40.7799 113.679 40.1599 108.149 40.1339 107.916C40.0564 107.322 40.4956 106.779 41.1159 106.702C41.7101 106.65 42.2529 107.064 42.3304 107.684C42.3304 107.735 42.9506 113.084 45.7414 118.356C49.4106 125.229 54.9144 128.743 62.1496 128.743C62.1756 128.743 62.1756 128.743 62.2014 128.743C71.6329 128.743 77.2919 124.247 80.3926 120.449C81.9431 118.562 85.3541 113.136 85.3799 109.415C85.3799 108.821 85.8709 108.33 86.4651 108.33C87.0594 108.33 87.5504 108.821 87.5504 109.441C87.5246 111.663 86.0259 117.012 82.0724 121.844C78.6614 125.978 72.4599 130.94 62.1756 130.94Z" fill="url(#paint62_linear)"/>
<path opacity="0.2" d="M124.166 23.7031H119.851V24.7884H124.166V23.7031Z" fill="#1F253C"/>
<path opacity="0.2" d="M128.481 24.7891H124.166V29.1042H128.481V24.7891Z" fill="#1F253C"/>
<path d="M121.995 18.3027H117.68V22.618H121.995V18.3027Z" fill="url(#paint63_linear)"/>
<path d="M126.337 22.6191H122.021V26.9345H126.337V22.6191Z" fill="url(#paint64_linear)"/>
<path d="M26.1288 118.045H21.8135V122.36H26.1288V118.045Z" fill="url(#paint65_linear)"/>
<path d="M30.4442 122.387H26.1289V126.702H30.4442V122.387Z" fill="url(#paint66_linear)"/>
<path opacity="0.6" d="M121.349 110.81C124.789 110.81 127.577 108.022 127.577 104.583C127.577 101.143 124.789 98.3555 121.349 98.3555C117.91 98.3555 115.122 101.143 115.122 104.583C115.122 108.022 117.91 110.81 121.349 110.81Z" fill="url(#paint67_linear)"/>
<path opacity="0.9" d="M120.755 109.364C123.581 109.364 125.871 107.073 125.871 104.247C125.871 101.422 123.581 99.1309 120.755 99.1309C117.929 99.1309 115.639 101.422 115.639 104.247C115.639 107.073 117.929 109.364 120.755 109.364Z" fill="url(#paint68_linear)"/>
<path d="M120.755 107.787C122.71 107.787 124.295 106.202 124.295 104.247C124.295 102.292 122.71 100.707 120.755 100.707C118.8 100.707 117.215 102.292 117.215 104.247C117.215 106.202 118.8 107.787 120.755 107.787Z" fill="url(#paint69_linear)"/>
<path d="M120.756 106.702C122.111 106.702 123.21 105.603 123.21 104.248C123.21 102.892 122.111 101.793 120.756 101.793C119.4 101.793 118.301 102.892 118.301 104.248C118.301 105.603 119.4 106.702 120.756 106.702Z" fill="url(#paint70_linear)"/>
<path d="M120.756 105.487C121.441 105.487 121.996 104.931 121.996 104.246C121.996 103.561 121.441 103.006 120.756 103.006C120.071 103.006 119.516 103.561 119.516 104.246C119.516 104.931 120.071 105.487 120.756 105.487Z" fill="url(#paint71_linear)"/>
<path d="M120.652 107.425C122.407 107.425 123.83 106.002 123.83 104.247C123.83 102.491 122.407 101.068 120.652 101.068C118.897 101.068 117.474 102.491 117.474 104.247C117.474 106.002 118.897 107.425 120.652 107.425Z" fill="url(#paint72_linear)"/>
<path d="M120.755 110.604C117.267 110.604 114.398 107.761 114.398 104.247C114.398 100.733 117.241 97.8906 120.755 97.8906C124.269 97.8906 127.112 100.733 127.112 104.247C127.112 107.761 124.269 110.604 120.755 110.604ZM120.755 98.1749C117.396 98.1749 114.657 100.914 114.657 104.273C114.657 107.632 117.396 110.371 120.755 110.371C124.114 110.371 126.853 107.632 126.853 104.273C126.853 100.914 124.114 98.1749 120.755 98.1749Z" fill="url(#paint73_linear)"/>
<path d="M120.755 109.493C117.861 109.493 115.51 107.141 115.51 104.247C115.51 101.353 117.861 99.002 120.755 99.002C123.649 99.002 126.001 101.353 126.001 104.247C126.001 107.141 123.649 109.493 120.755 109.493ZM120.755 99.2602C118.016 99.2602 115.768 101.508 115.768 104.247C115.768 106.986 118.016 109.234 120.755 109.234C123.494 109.234 125.742 106.986 125.742 104.247C125.742 101.508 123.52 99.2602 120.755 99.2602Z" fill="url(#paint74_linear)"/>
<path d="M120.755 107.917C118.74 107.917 117.086 106.263 117.086 104.247C117.086 102.232 118.74 100.578 120.755 100.578C122.771 100.578 124.425 102.232 124.425 104.247C124.425 106.263 122.771 107.917 120.755 107.917ZM120.755 100.862C118.869 100.862 117.344 102.387 117.344 104.273C117.344 106.159 118.869 107.684 120.755 107.684C122.642 107.684 124.166 106.159 124.166 104.273C124.166 102.387 122.642 100.862 120.755 100.862Z" fill="url(#paint75_linear)"/>
<path d="M120.755 106.857C119.334 106.857 118.171 105.695 118.171 104.273C118.171 102.852 119.334 101.689 120.755 101.689C122.176 101.689 123.339 102.852 123.339 104.273C123.339 105.695 122.202 106.857 120.755 106.857ZM120.755 101.922C119.463 101.922 118.429 102.981 118.429 104.248C118.429 105.514 119.489 106.573 120.755 106.573C122.047 106.573 123.08 105.514 123.08 104.248C123.08 102.981 122.047 101.922 120.755 101.922Z" fill="url(#paint76_linear)"/>
<path d="M120.755 105.641C120.006 105.641 119.386 105.021 119.386 104.272C119.386 103.523 120.006 102.902 120.755 102.902C121.504 102.902 122.125 103.523 122.125 104.272C122.125 105.021 121.53 105.641 120.755 105.641ZM120.755 103.135C120.135 103.135 119.644 103.626 119.644 104.246C119.644 104.866 120.135 105.357 120.755 105.357C121.375 105.357 121.866 104.866 121.866 104.246C121.866 103.626 121.375 103.135 120.755 103.135Z" fill="url(#paint77_linear)"/>
<path opacity="0.8" d="M33.4164 42.49C33.3389 42.4642 28.1191 42.3607 27.2149 46.676C26.5171 50.0352 30.5481 53.3687 30.7031 53.4202C31.5559 53.627 32.8221 51.3532 33.5714 48.3297C34.3466 45.3065 34.2691 42.6967 33.4164 42.49Z" fill="url(#paint78_linear)"/>
<defs>
<linearGradient id="paint0_linear" x1="19.9785" y1="43.8848" x2="19.9785" y2="90.6553" gradientUnits="userSpaceOnUse">
<stop stop-color="#73B3FF"/>
<stop offset="1" stop-color="#491EB8"/>
</linearGradient>
<linearGradient id="paint1_linear" x1="27" y1="7.5" x2="27" y2="117.762" gradientUnits="userSpaceOnUse">
<stop stop-color="#73B3FF"/>
<stop offset="1" stop-color="#491EB8"/>
</linearGradient>
<linearGradient id="paint2_linear" x1="118.867" y1="19.457" x2="118.867" y2="100.894" gradientUnits="userSpaceOnUse">
<stop stop-color="#73B3FF"/>
<stop offset="1" stop-color="#491EB8"/>
</linearGradient>
<linearGradient id="paint3_linear" x1="2.5" y1="29.4004" x2="2.5" y2="115.771" gradientUnits="userSpaceOnUse">
<stop stop-color="#E1467C"/>
<stop offset="1" stop-color="#FF9CE3"/>
</linearGradient>
<linearGradient id="paint4_linear" x1="19.2305" y1="30.1289" x2="19.2305" y2="34.4787" gradientUnits="userSpaceOnUse">
<stop stop-color="#E1467C"/>
<stop offset="1" stop-color="#FF9CE3"/>
</linearGradient>
<linearGradient id="paint5_linear" x1="10.96" y1="22.2559" x2="10.96" y2="122.903" gradientUnits="userSpaceOnUse">
<stop stop-color="#E1467C"/>
<stop offset="1" stop-color="#FF9CE3"/>
</linearGradient>
<linearGradient id="paint6_linear" x1="11.8926" y1="12.1309" x2="11.8926" y2="18.9239" gradientUnits="userSpaceOnUse">
<stop stop-color="#E1467C"/>
<stop offset="1" stop-color="#FF9CE3"/>
</linearGradient>
<linearGradient id="paint7_linear" x1="21.0508" y1="47.8164" x2="21.0508" y2="97.3222" gradientUnits="userSpaceOnUse">
<stop stop-color="#E1467C"/>
<stop offset="1" stop-color="#FF9CE3"/>
</linearGradient>
<linearGradient id="paint8_linear" x1="22.6309" y1="55.1191" x2="22.6309" y2="90.0355" gradientUnits="userSpaceOnUse">
<stop stop-color="#E1467C"/>
<stop offset="1" stop-color="#FF9CE3"/>
</linearGradient>
<linearGradient id="paint9_linear" x1="28.8955" y1="63.4727" x2="28.8955" y2="81.6621" gradientUnits="userSpaceOnUse">
<stop stop-color="#E1467C"/>
<stop offset="1" stop-color="#FF9CE3"/>
</linearGradient>
<linearGradient id="paint10_linear" x1="44.293" y1="99.4141" x2="44.293" y2="142.338" gradientUnits="userSpaceOnUse">
<stop stop-color="#73B3FF"/>
<stop offset="1" stop-color="#491EB8"/>
</linearGradient>
<linearGradient id="paint11_linear" x1="180.445" y1="83.7305" x2="180.445" y2="87.5032" gradientUnits="userSpaceOnUse">
<stop stop-color="#E1467C"/>
<stop offset="1" stop-color="#FF9CE3"/>
</linearGradient>
<linearGradient id="paint12_linear" x1="106.181" y1="23.7031" x2="106.181" y2="31.326" gradientUnits="userSpaceOnUse">
<stop stop-color="#E1467C"/>
<stop offset="1" stop-color="#FF9CE3"/>
</linearGradient>
<linearGradient id="paint13_linear" x1="3.0127" y1="99.4141" x2="3.0127" y2="141.585" gradientUnits="userSpaceOnUse">
<stop stop-color="#E1467C"/>
<stop offset="1" stop-color="#FF9CE3"/>
</linearGradient>
<linearGradient id="paint14_linear" x1="42.9109" y1="22.3889" x2="82.8363" y2="38.4337" gradientUnits="userSpaceOnUse">
<stop stop-color="#3D4668"/>
<stop offset="1" stop-color="#1F253C"/>
</linearGradient>
<linearGradient id="paint15_linear" x1="42.1035" y1="79.5957" x2="42.1035" y2="119.492" gradientUnits="userSpaceOnUse">
<stop stop-color="#73B3FF"/>
<stop offset="1" stop-color="#491EB8"/>
</linearGradient>
<linearGradient id="paint16_linear" x1="32.4336" y1="35.502" x2="32.4336" y2="98.8362" gradientUnits="userSpaceOnUse">
<stop stop-color="#73B3FF"/>
<stop offset="1" stop-color="#491EB8"/>
</linearGradient>
<linearGradient id="paint17_linear" x1="71.4521" y1="47.6523" x2="71.4521" y2="54.0915" gradientUnits="userSpaceOnUse">
<stop stop-color="#73B3FF"/>
<stop offset="1" stop-color="#491EB8"/>
</linearGradient>
<linearGradient id="paint18_linear" x1="39.7207" y1="47.8379" x2="39.7207" y2="53.8069" gradientUnits="userSpaceOnUse">
<stop stop-color="#73B3FF"/>
<stop offset="1" stop-color="#491EB8"/>
</linearGradient>
<linearGradient id="paint19_linear" x1="138.249" y1="103.213" x2="138.249" y2="113.807" gradientUnits="userSpaceOnUse">
<stop stop-color="#73B3FF"/>
<stop offset="1" stop-color="#491EB8"/>
</linearGradient>
<linearGradient id="paint20_linear" x1="169.102" y1="103.213" x2="169.102" y2="113.807" gradientUnits="userSpaceOnUse">
<stop stop-color="#E1467C"/>
<stop offset="1" stop-color="#FF9CE3"/>
</linearGradient>
<linearGradient id="paint21_linear" x1="111.556" y1="64.918" x2="111.556" y2="66.6492" gradientUnits="userSpaceOnUse">
<stop stop-color="#E1467C"/>
<stop offset="1" stop-color="#FF9CE3"/>
</linearGradient>
<linearGradient id="paint22_linear" x1="173.185" y1="64.918" x2="173.185" y2="66.6492" gradientUnits="userSpaceOnUse">
<stop stop-color="#E1467C"/>
<stop offset="1" stop-color="#FF9CE3"/>
</linearGradient>
<linearGradient id="paint23_linear" x1="185.304" y1="72.0254" x2="185.304" y2="75.7979" gradientUnits="userSpaceOnUse">
<stop stop-color="#E1467C"/>
<stop offset="1" stop-color="#FF9CE3"/>
</linearGradient>
<linearGradient id="paint24_linear" x1="173.185" y1="77.8906" x2="173.185" y2="81.6631" gradientUnits="userSpaceOnUse">
<stop stop-color="#E1467C"/>
<stop offset="1" stop-color="#FF9CE3"/>
</linearGradient>
<linearGradient id="paint25_linear" x1="185.304" y1="77.8906" x2="185.304" y2="81.6631" gradientUnits="userSpaceOnUse">
<stop stop-color="#E1467C"/>
<stop offset="1" stop-color="#FF9CE3"/>
</linearGradient>
<linearGradient id="paint26_linear" x1="173.185" y1="89.5703" x2="173.185" y2="93.3431" gradientUnits="userSpaceOnUse">
<stop stop-color="#E1467C"/>
<stop offset="1" stop-color="#FF9CE3"/>
</linearGradient>
<linearGradient id="paint27_linear" x1="111.556" y1="82.5938" x2="111.556" y2="83.3947" gradientUnits="userSpaceOnUse">
<stop stop-color="#E1467C"/>
<stop offset="1" stop-color="#FF9CE3"/>
</linearGradient>
<linearGradient id="paint28_linear" x1="111.556" y1="84.2461" x2="111.556" y2="85.0471" gradientUnits="userSpaceOnUse">
<stop stop-color="#E1467C"/>
<stop offset="1" stop-color="#FF9CE3"/>
</linearGradient>
<linearGradient id="paint29_linear" x1="111.556" y1="85.9258" x2="111.556" y2="86.7268" gradientUnits="userSpaceOnUse">
<stop stop-color="#E1467C"/>
<stop offset="1" stop-color="#FF9CE3"/>
</linearGradient>
<linearGradient id="paint30_linear" x1="111.556" y1="87.6055" x2="111.556" y2="88.4064" gradientUnits="userSpaceOnUse">
<stop stop-color="#E1467C"/>
<stop offset="1" stop-color="#FF9CE3"/>
</linearGradient>
<linearGradient id="paint31_linear" x1="111.556" y1="89.2598" x2="111.556" y2="90.0608" gradientUnits="userSpaceOnUse">
<stop stop-color="#E1467C"/>
<stop offset="1" stop-color="#FF9CE3"/>
</linearGradient>
<linearGradient id="paint32_linear" x1="111.556" y1="90.9395" x2="111.556" y2="91.7405" gradientUnits="userSpaceOnUse">
<stop stop-color="#E1467C"/>
<stop offset="1" stop-color="#FF9CE3"/>
</linearGradient>
<linearGradient id="paint33_linear" x1="111.556" y1="92.5938" x2="111.556" y2="93.3948" gradientUnits="userSpaceOnUse">
<stop stop-color="#E1467C"/>
<stop offset="1" stop-color="#FF9CE3"/>
</linearGradient>
<linearGradient id="paint34_linear" x1="111.556" y1="94.2734" x2="111.556" y2="95.0744" gradientUnits="userSpaceOnUse">
<stop stop-color="#E1467C"/>
<stop offset="1" stop-color="#FF9CE3"/>
</linearGradient>
<linearGradient id="paint35_linear" x1="109.67" y1="68.8711" x2="109.67" y2="79.7498" gradientUnits="userSpaceOnUse">
<stop stop-color="#E1467C"/>
<stop offset="1" stop-color="#FF9CE3"/>
</linearGradient>
<linearGradient id="paint36_linear" x1="140.549" y1="64.918" x2="140.549" y2="75.7965" gradientUnits="userSpaceOnUse">
<stop stop-color="#E1467C"/>
<stop offset="1" stop-color="#FF9CE3"/>
</linearGradient>
<linearGradient id="paint37_linear" x1="140.549" y1="77.1406" x2="140.549" y2="78.6394" gradientUnits="userSpaceOnUse">
<stop stop-color="#E1467C"/>
<stop offset="1" stop-color="#FF9CE3"/>
</linearGradient>
<linearGradient id="paint38_linear" x1="140.549" y1="79.9824" x2="140.549" y2="81.4809" gradientUnits="userSpaceOnUse">
<stop stop-color="#73B3FF"/>
<stop offset="1" stop-color="#491EB8"/>
</linearGradient>
<linearGradient id="paint39_linear" x1="140.549" y1="84.0664" x2="140.549" y2="94.9449" gradientUnits="userSpaceOnUse">
<stop stop-color="#E1467C"/>
<stop offset="1" stop-color="#FF9CE3"/>
</linearGradient>
<linearGradient id="paint40_linear" x1="140.549" y1="96.3145" x2="140.549" y2="97.8132" gradientUnits="userSpaceOnUse">
<stop stop-color="#E1467C"/>
<stop offset="1" stop-color="#FF9CE3"/>
</linearGradient>
<linearGradient id="paint41_linear" x1="188.456" y1="25.6152" x2="188.456" y2="28.5867" gradientUnits="userSpaceOnUse">
<stop stop-color="#73B3FF"/>
<stop offset="1" stop-color="#491EB8"/>
</linearGradient>
<linearGradient id="paint42_linear" x1="157.654" y1="67.1152" x2="157.654" y2="70.0867" gradientUnits="userSpaceOnUse">
<stop stop-color="#73B3FF"/>
<stop offset="1" stop-color="#491EB8"/>
</linearGradient>
<linearGradient id="paint43_linear" x1="106.259" y1="64.3242" x2="106.259" y2="67.27" gradientUnits="userSpaceOnUse">
<stop stop-color="#E1467C"/>
<stop offset="1" stop-color="#FF9CE3"/>
</linearGradient>
<linearGradient id="paint44_linear" x1="129.179" y1="61.7402" x2="129.179" y2="62.6187" gradientUnits="userSpaceOnUse">
<stop stop-color="#E1467C"/>
<stop offset="1" stop-color="#FF9CE3"/>
</linearGradient>
<linearGradient id="paint45_linear" x1="160.626" y1="61.7402" x2="160.626" y2="62.6187" gradientUnits="userSpaceOnUse">
<stop stop-color="#E1467C"/>
<stop offset="1" stop-color="#FF9CE3"/>
</linearGradient>
<linearGradient id="paint46_linear" x1="131.091" y1="35.6172" x2="131.091" y2="36.4957" gradientUnits="userSpaceOnUse">
<stop stop-color="#E1467C"/>
<stop offset="1" stop-color="#FF9CE3"/>
</linearGradient>
<linearGradient id="paint47_linear" x1="195.329" y1="92.9805" x2="195.329" y2="95.978" gradientUnits="userSpaceOnUse">
<stop stop-color="#E1467C"/>
<stop offset="1" stop-color="#FF9CE3"/>
</linearGradient>
<linearGradient id="paint48_linear" x1="34.9229" y1="54.8281" x2="34.9229" y2="61.7921" gradientUnits="userSpaceOnUse">
<stop stop-color="#73B3FF"/>
<stop offset="1" stop-color="#491EB8"/>
</linearGradient>
<linearGradient id="paint49_linear" x1="69.0752" y1="54.8281" x2="69.0752" y2="62.1021" gradientUnits="userSpaceOnUse">
<stop stop-color="#73B3FF"/>
<stop offset="1" stop-color="#491EB8"/>
</linearGradient>
<linearGradient id="paint50_linear" x1="162.1" y1="35.6172" x2="162.1" y2="36.4957" gradientUnits="userSpaceOnUse">
<stop stop-color="#E1467C"/>
<stop offset="1" stop-color="#FF9CE3"/>
</linearGradient>
<linearGradient id="paint51_linear" x1="192.771" y1="35.6172" x2="192.771" y2="36.4957" gradientUnits="userSpaceOnUse">
<stop stop-color="#E1467C"/>
<stop offset="1" stop-color="#FF9CE3"/>
</linearGradient>
<linearGradient id="paint52_linear" x1="157.654" y1="86.5215" x2="157.654" y2="89.493" gradientUnits="userSpaceOnUse">
<stop stop-color="#73B3FF"/>
<stop offset="1" stop-color="#491EB8"/>
</linearGradient>
<linearGradient id="paint53_linear" x1="92.4346" y1="52.9551" x2="92.4346" y2="63.4463" gradientUnits="userSpaceOnUse">
<stop stop-color="#E1467C"/>
<stop offset="1" stop-color="#FF9CE3"/>
</linearGradient>
<linearGradient id="paint54_linear" x1="94.0107" y1="54.5312" x2="94.0107" y2="61.8698" gradientUnits="userSpaceOnUse">
<stop stop-color="#E1467C"/>
<stop offset="1" stop-color="#FF9CE3"/>
</linearGradient>
<linearGradient id="paint55_linear" x1="95.0957" y1="55.6172" x2="95.0957" y2="60.7852" gradientUnits="userSpaceOnUse">
<stop stop-color="#E1467C"/>
<stop offset="1" stop-color="#FF9CE3"/>
</linearGradient>
<linearGradient id="paint56_linear" x1="96.3105" y1="56.8301" x2="96.3105" y2="59.5691" gradientUnits="userSpaceOnUse">
<stop stop-color="#E1467C"/>
<stop offset="1" stop-color="#FF9CE3"/>
</linearGradient>
<linearGradient id="paint57_linear" x1="91.3232" y1="51.8438" x2="91.3232" y2="64.557" gradientUnits="userSpaceOnUse">
<stop stop-color="#E1467C"/>
<stop offset="1" stop-color="#FF9CE3"/>
</linearGradient>
<linearGradient id="paint58_linear" x1="16.0166" y1="15.3965" x2="16.0166" y2="86.0823" gradientUnits="userSpaceOnUse">
<stop stop-color="#E1467C"/>
<stop offset="1" stop-color="#FF9CE3"/>
</linearGradient>
<linearGradient id="paint59_linear" x1="21.0742" y1="26.25" x2="21.0742" y2="71.0785" gradientUnits="userSpaceOnUse">
<stop stop-color="#73B3FF"/>
<stop offset="1" stop-color="#491EB8"/>
</linearGradient>
<linearGradient id="paint60_linear" x1="25.377" y1="34.3242" x2="25.377" y2="63.5267" gradientUnits="userSpaceOnUse">
<stop stop-color="#73B3FF"/>
<stop offset="1" stop-color="#491EB8"/>
</linearGradient>
<linearGradient id="paint61_linear" x1="16.709" y1="12.4941" x2="16.709" y2="83.3935" gradientUnits="userSpaceOnUse">
<stop stop-color="#73B3FF"/>
<stop offset="1" stop-color="#491EB8"/>
</linearGradient>
<linearGradient id="paint62_linear" x1="40.125" y1="106.697" x2="40.125" y2="130.94" gradientUnits="userSpaceOnUse">
<stop stop-color="#E1467C"/>
<stop offset="1" stop-color="#FF9CE3"/>
</linearGradient>
<linearGradient id="paint63_linear" x1="117.68" y1="18.3027" x2="117.68" y2="22.618" gradientUnits="userSpaceOnUse">
<stop stop-color="#73B3FF"/>
<stop offset="1" stop-color="#491EB8"/>
</linearGradient>
<linearGradient id="paint64_linear" x1="122.021" y1="22.6191" x2="122.021" y2="26.9345" gradientUnits="userSpaceOnUse">
<stop stop-color="#73B3FF"/>
<stop offset="1" stop-color="#491EB8"/>
</linearGradient>
<linearGradient id="paint65_linear" x1="21.8135" y1="118.045" x2="21.8135" y2="122.36" gradientUnits="userSpaceOnUse">
<stop stop-color="#73B3FF"/>
<stop offset="1" stop-color="#491EB8"/>
</linearGradient>
<linearGradient id="paint66_linear" x1="26.1289" y1="122.387" x2="26.1289" y2="126.702" gradientUnits="userSpaceOnUse">
<stop stop-color="#73B3FF"/>
<stop offset="1" stop-color="#491EB8"/>
</linearGradient>
<linearGradient id="paint67_linear" x1="115.122" y1="98.3555" x2="115.122" y2="110.81" gradientUnits="userSpaceOnUse">
<stop stop-color="#73B3FF"/>
<stop offset="1" stop-color="#491EB8"/>
</linearGradient>
<linearGradient id="paint68_linear" x1="115.639" y1="99.1309" x2="115.639" y2="109.364" gradientUnits="userSpaceOnUse">
<stop stop-color="#73B3FF"/>
<stop offset="1" stop-color="#491EB8"/>
</linearGradient>
<linearGradient id="paint69_linear" x1="117.215" y1="100.707" x2="117.215" y2="107.787" gradientUnits="userSpaceOnUse">
<stop stop-color="#73B3FF"/>
<stop offset="1" stop-color="#491EB8"/>
</linearGradient>
<linearGradient id="paint70_linear" x1="118.301" y1="101.793" x2="118.301" y2="106.702" gradientUnits="userSpaceOnUse">
<stop stop-color="#73B3FF"/>
<stop offset="1" stop-color="#491EB8"/>
</linearGradient>
<linearGradient id="paint71_linear" x1="119.516" y1="103.006" x2="119.516" y2="105.487" gradientUnits="userSpaceOnUse">
<stop stop-color="#73B3FF"/>
<stop offset="1" stop-color="#491EB8"/>
</linearGradient>
<linearGradient id="paint72_linear" x1="117.474" y1="101.068" x2="117.474" y2="107.425" gradientUnits="userSpaceOnUse">
<stop stop-color="#73B3FF"/>
<stop offset="1" stop-color="#491EB8"/>
</linearGradient>
<linearGradient id="paint73_linear" x1="114.398" y1="97.8906" x2="114.398" y2="110.604" gradientUnits="userSpaceOnUse">
<stop stop-color="#E1467C"/>
<stop offset="1" stop-color="#FF9CE3"/>
</linearGradient>
<linearGradient id="paint74_linear" x1="115.51" y1="99.002" x2="115.51" y2="109.493" gradientUnits="userSpaceOnUse">
<stop stop-color="#E1467C"/>
<stop offset="1" stop-color="#FF9CE3"/>
</linearGradient>
<linearGradient id="paint75_linear" x1="117.086" y1="100.578" x2="117.086" y2="107.917" gradientUnits="userSpaceOnUse">
<stop stop-color="#E1467C"/>
<stop offset="1" stop-color="#FF9CE3"/>
</linearGradient>
<linearGradient id="paint76_linear" x1="118.171" y1="101.689" x2="118.171" y2="106.857" gradientUnits="userSpaceOnUse">
<stop stop-color="#E1467C"/>
<stop offset="1" stop-color="#FF9CE3"/>
</linearGradient>
<linearGradient id="paint77_linear" x1="119.386" y1="102.902" x2="119.386" y2="105.641" gradientUnits="userSpaceOnUse">
<stop stop-color="#E1467C"/>
<stop offset="1" stop-color="#FF9CE3"/>
</linearGradient>
<linearGradient id="paint78_linear" x1="27.1338" y1="42.4844" x2="27.1338" y2="53.4333" gradientUnits="userSpaceOnUse">
<stop stop-color="#E1467C"/>
<stop offset="1" stop-color="#FF9CE3"/>
</linearGradient>
</defs>
</svg>
